# xmcd
#
# Track frame offsets:
#	182
#	14015
#	25890
#	38172
#	50397
#	65040
#	83472
#	95870
#	107887
#	122350
#	134472
#	148597
#	158427
#	169930
#	180440
#	193130
#	204132
#	216115
#	227632
#	241975
#
# Disc length: 3426 seconds
#
# Revision: 4
# Processed by: cddbd v1.5.1PL2 Copyright (c) Steve Scherf et al.
# Submitted via: audiograbber 1.83.01
#
DISCID=100d6014
DTITLE=Various Artist - The Very Best of Cajun - CD 2
DYEAR=1996
DGENRE=Country
TTITLE0=C.J. Chenier - Man Smart - Woman Smarter
TTITLE1=Jo-El Sonnier - Cajun Life
TTITLE2=Harry Choates - Jole Blonde
TTITLE3=Robert Jardell and Pure Cajun - You Belong To Your Husband But Your Heart
TTITLE3=Belongs To Me
TTITLE4=Keith Frank - Anybody Wanta Party
TTITLE5=Balfa Toujours - J'Ai Perdu Mes Lunettes
TTITLE6=File - One Foot in The Bayou
TTITLE7=Leroy Broussard - Lemonade Song
TTITLE8=Cookie and The Cupcakes - Mathilda
TTITLE9=Tim Broussard - Accordian Players Waltz
TTITLE10=Belton Richard - The Cajun Streak
TTITLE11=Shirley Bergeron - Madam Boso
TTITLE12=Cleveland Crochet - Sugar Bee
TTITLE13=Camay Doucet - Hold My False Teeth
TTITLE14=Aldus Roger and The Lafayette Playboys - Diga Ding Ding Dong
TTITLE15=Lawrence Walker - Mamou Two Step
TTITLE16=Pierre Le Rue - Swamp Rat
TTITLE17=Cajun Born - I'm Cajun Cool
TTITLE18=Robert Jardell and Pure Cajun - Pure Cajun Special
TTITLE19=Tommy McLain - Sweet Dreams
EXTD=
EXTT0=
EXTT1=Jo-el Sonnier
EXTT2=Harry Choates
EXTT3=Robert Jardell and Pure Cajun
EXTT4=Keith Frank
EXTT5=Balfa Toujours
EXTT6=File
EXTT7=Leroy Broussard
EXTT8=Cookie and The Cupcakes
EXTT9=Tim Broussard
EXTT10=Belton Richard
EXTT11=Shirley Bergeron
EXTT12=Cleveland Crochet
EXTT13=Camay Doucet
EXTT14=Aldus Roger and The Lafayette Playboys
EXTT15=Lawrence Walker
EXTT16=Pierre Le Rue
EXTT17=Cajun Born
EXTT18=Robert Jardell and Pure Cajun
EXTT19=Tommy McLain
PLAYORDER=
